# xmcd CD database file
#
# Track frame offsets:
#	150
#	16081
#	28959
#	49517
#	74289
#	94191
#	114304
#	133003
#	147666
#	165591
#	183720
#	196345
#	211880
#	227993
#	246565
#
# Disc length: 3372 seconds
#
# Revision: 0
# Processed by: cddbd v1.5.2PL0 Copyright (c) Steve Scherf et al.
# Submitted via: CDex 1.51
#
DISCID=dd0d2a0f
DTITLE=Diana Ross - I Love You
DYEAR=2007
DGENRE=Jazz
TTITLE0=Remember
TTITLE1=More Today Than Yesterday
TTITLE2=I Want You
TTITLE3=I Love You (That's All That Really Matters)
TTITLE4=What About Love
TTITLE5=The Look Of Love
TTITLE6=Take My Breath Away
TTITLE7=Lovely Day
TTITLE8=Only You
TTITLE9=To Be Loved
TTITLE10=I Will
TTITLE11=This Magic Moment
TTITLE12=You Are So Beautiful
TTITLE13=Always And Forever
TTITLE14=Remember (Reprise)
EXTD=YEAR: 2007
EXTT0=
EXTT1=
EXTT2=
EXTT3=
EXTT4=
EXTT5=
EXTT6=
EXTT7=
EXTT8=
EXTT9=
EXTT10=
EXTT11=
EXTT12=
EXTT13=
EXTT14=
PLAYORDER=
